<svg width="21" height="21" viewBox="0 0 21 21" fill="none" xmlns="http://www.w3.org/2000/svg">
<path d="M20.137 10.3007C20.1091 10.2367 19.4266 8.7232 17.9025 7.19906C16.4883 5.78648 14.0585 4.10156 10.5 4.10156C6.94149 4.10156 4.51172 5.78648 3.0975 7.19906C1.57336 8.7232 0.890862 10.2342 0.862971 10.3007C0.834927 10.3637 0.820435 10.4319 0.820435 10.5008C0.820435 10.5698 0.834927 10.638 0.862971 10.701C0.890862 10.7641 1.57336 12.2776 3.0975 13.8018C4.51172 15.2143 6.94149 16.8984 10.5 16.8984C14.0585 16.8984 16.4883 15.2143 17.9025 13.8018C19.4266 12.2776 20.1091 10.7666 20.137 10.701C20.1651 10.638 20.1796 10.5698 20.1796 10.5008C20.1796 10.4319 20.1651 10.3637 20.137 10.3007ZM10.5 15.9141C7.92586 15.9141 5.67821 14.9773 3.81856 13.1307C3.03899 12.356 2.37932 11.4693 1.86129 10.5C2.37917 9.53082 3.03887 8.64441 3.81856 7.87008C5.67821 6.02273 7.92586 5.08594 10.5 5.08594C13.0741 5.08594 15.3218 6.02273 17.1814 7.87008C17.9611 8.64441 18.6208 9.53082 19.1387 10.5C18.6162 11.5016 15.9961 15.9141 10.5 15.9141ZM10.5 6.72656C9.75369 6.72656 9.02413 6.94787 8.40359 7.3625C7.78305 7.77713 7.2994 8.36646 7.0138 9.05597C6.7282 9.74547 6.65347 10.5042 6.79907 11.2362C6.94467 11.9681 7.30405 12.6405 7.83178 13.1682C8.3595 13.6959 9.03187 14.0553 9.76384 14.2009C10.4958 14.3465 11.2545 14.2718 11.944 13.9862C12.6335 13.7006 13.2229 13.2169 13.6375 12.5964C14.0521 11.9759 14.2734 11.2463 14.2734 10.5C14.2721 9.49962 13.8742 8.54059 13.1668 7.83322C12.4594 7.12584 11.5004 6.72786 10.5 6.72656ZM10.5 13.2891C9.94838 13.2891 9.40914 13.1255 8.95048 12.819C8.49182 12.5126 8.13434 12.077 7.92324 11.5673C7.71215 11.0577 7.65691 10.4969 7.76453 9.95588C7.87215 9.41486 8.13778 8.91789 8.52784 8.52783C8.91789 8.13778 9.41486 7.87214 9.95588 7.76453C10.4969 7.65691 11.0577 7.71214 11.5673 7.92324C12.077 8.13434 12.5126 8.49182 12.819 8.95048C13.1255 9.40914 13.2891 9.94838 13.2891 10.5C13.2891 11.2397 12.9952 11.9491 12.4722 12.4722C11.9491 12.9952 11.2397 13.2891 10.5 13.2891Z" fill="#424242"/>
</svg>
